<svg xmlns="http://www.w3.org/2000/svg" width="101" height="40" fill="none" viewBox="0 0 101 40"><path fill="#000" d="M13.333 14.565H17.6V31.57h-4.267v-1.797q-1.25 1.188-2.506 1.711a7 7 0 0 1-2.724.524q-3.294 0-5.699-2.556T0 23.098q0-3.94 2.326-6.455 2.326-2.517 5.652-2.516a7.2 7.2 0 0 1 2.872.578q1.343.579 2.482 1.735zm-4.485 3.501q-1.979 0-3.287 1.399t-1.308 3.587q0 2.204 1.332 3.626T8.864 28.1q2.01 0 3.334-1.399 1.324-1.398 1.324-3.665 0-2.22-1.324-3.595-1.323-1.376-3.349-1.376zM20.6 15.002h4.267v1.954q1.095-1.203 2.432-1.797t2.917-.594q1.595 0 2.878.78 1.282.783 2.065 2.283 1.017-1.5 2.495-2.282 1.478-.781 3.23-.781 1.814-.001 3.19.844 1.378.844 1.98 2.204.601 1.36.602 4.423v9.972h-4.298V23.38q0-2.892-.72-3.916-.717-1.023-2.156-1.024-1.094 0-1.962.625t-1.29 1.727-.421 3.54v7.674H31.51v-8.237q0-2.282-.337-3.306-.337-1.023-1.011-1.524-.674-.5-1.63-.5-1.064 0-1.934.633-.87.634-1.3 1.774t-.431 3.595v7.565H20.6zM53.892 8v8.44q1.157-1.156 2.501-1.735a7.2 7.2 0 0 1 2.876-.578q3.33 0 5.658 2.516t2.33 6.455q-.001 3.798-2.408 6.354t-5.705 2.556q-1.469 0-2.735-.524-1.266-.523-2.517-1.711v1.797h-4.236V8zm4.486 10.066q-2.016 0-3.345 1.376t-1.328 3.595q0 2.267 1.328 3.665 1.329 1.4 3.345 1.399 1.954 0 3.29-1.422t1.336-3.626q0-2.188-1.313-3.587-1.313-1.398-3.314-1.399zM88.09 24.302H74.384q.297 1.813 1.586 2.884t3.29 1.07q2.391.001 4.11-1.672l3.596 1.688q-1.344 1.906-3.22 2.82-1.875.915-4.455.916-4.002 0-6.518-2.524t-2.516-6.322q0-3.893 2.509-6.463t6.29-2.571q4.019 0 6.534 2.57 2.517 2.573 2.517 6.792zm-4.266-3.36q-.423-1.423-1.668-2.313t-2.89-.891q-1.785 0-3.13 1-.846.626-1.566 2.204h9.253M91.107 15.002h3.657v2.14q.594-1.265 1.58-1.921a3.8 3.8 0 0 1 2.156-.656q.828 0 1.735.438l-1.328 3.673q-.75-.375-1.235-.375-.984 0-1.665 1.219-.68 1.22-.68 4.783l.015.828v6.877h-4.236z"/></svg>