<svg xmlns="http://www.w3.org/2000/svg" width="46" height="46" fill="none" viewBox="0 0 46 46"><path stroke="#111928" stroke-width="1.2" d="M.6 34.525h41.063V43a2.4 2.4 0 0 1-2.4 2.4H3A2.4 2.4 0 0 1 .6 43zM4.4 33v.6h33.2V21a3.6 3.6 0 0 0-3.6-3.6H8A3.6 3.6 0 0 0 4.4 21z"/><path fill="#FDC8D3" stroke="#111928" stroke-width="1.2" d="M2.588 30.875a5 5 0 0 1 5-5h8.687a5 5 0 0 1 5 5V34.5H2.588zM21.275 30.875a5 5 0 0 1 5-5h8.688a5 5 0 0 1 5 5V34.5H21.275z"/><path fill="#111928" d="M31.98.8a.4.4 0 0 1 .728 0l1.056 2.325a.4.4 0 0 0 .198.198l2.324 1.057a.4.4 0 0 1 0 .728l-2.324 1.056a.4.4 0 0 0-.198.199l-1.056 2.324a.4.4 0 0 1-.729 0l-1.056-2.324a.4.4 0 0 0-.199-.199l-2.323-1.056a.4.4 0 0 1 0-.728l2.323-1.057a.4.4 0 0 0 .199-.198zM42.618 9.138a.4.4 0 0 1 .728 0l.517 1.138a.4.4 0 0 0 .199.199l1.137.517a.4.4 0 0 1 0 .728l-1.137.518a.4.4 0 0 0-.199.198l-.517 1.138a.4.4 0 0 1-.728 0l-.518-1.138a.4.4 0 0 0-.198-.198l-1.138-.518a.4.4 0 0 1 0-.728l1.138-.517a.4.4 0 0 0 .198-.199z"/></svg>