<svg xmlns="http://www.w3.org/2000/svg" width="46" height="46" fill="none" viewBox="0 0 46 46"><circle cx="17" cy="29" r="16" fill="#fff" stroke="#000" stroke-width="1.2"/><path fill="#FDC8D3" stroke="#000" stroke-linecap="round" stroke-width="1.2" d="m16.052 14.477-.59-1.22c-8.184.666-12.239 7.01-13.243 10.1.064.277.461 1.36 1.539 3.463 1.347 2.629 6.862 2.95 8.24 4.168.711.628.98 1.69 1.051 2.602.062.796.34 1.59.947 2.11l.256.22c.36.309.568.76.568 1.234v2.58a2.091 2.091 0 0 0 4.104.564l.573-2.044a3.16 3.16 0 0 1 1.167-1.69l.901-.665a3.44 3.44 0 0 0 1.4-2.77v-.236c0-.881-.396-1.716-1.077-2.275a5.15 5.15 0 0 0-3.268-1.17H16.94c-.613 0-1.216-.149-1.757-.435l-2.817-1.49a1.585 1.585 0 0 1 1.22-2.912l1.544.488a1.249 1.249 0 0 0 1.301-2.029l-1.452-1.602a1.135 1.135 0 0 1-.021-1.5l.452-.529a4.57 4.57 0 0 0 .643-4.962ZM28.644 22.2l2.111-1.056c2.412 3.976 2.266 8.519 1.892 10.293l-3.42-1.134a4.395 4.395 0 0 1-.583-8.103Z"/></svg>