<svg xmlns="http://www.w3.org/2000/svg" width="46" height="46" fill="none" viewBox="0 0 46 46"><g clip-path="url(#a)"><path fill="#FDC8D3" stroke="#000" stroke-width="1.2" d="m10.736 40.34 1.03-11.018a2 2 0 0 1 2.105-1.81l10.02.574 8.059-.462a2 2 0 0 1 2.102 1.778l1.194 10.863c.043.39-.021.791-.258 1.105-1.242 1.641-4.897 4.171-12.146 4.171-7.32 0-10.802-2.58-11.897-4.22-.192-.287-.24-.638-.209-.981Z"/><path fill="#fff" stroke="#000" stroke-width="1.2" d="M19.895 17.178 2.31 24.204c-.837.334-.84 1.518-.004 1.856l17.557 7.103a8 8 0 0 0 5.965.014l17.83-7.115c.841-.336.839-1.527-.004-1.86l-17.858-7.038a8 8 0 0 0-5.901.014Z"/><path fill="#fff" d="m6.829 45.633-2.293-.748c-.766-.25-.989-1.336-.544-2.009 1.29-1.953 2.1-4.939 2.474-7.144 1.704 2.115 1.828 6.396 1.622 9.083-.048.62-.667 1.01-1.259.818"/><path stroke="#000" stroke-linecap="round" stroke-width="1.2" d="m23.05 22.16-10.583 4.336c-2.13.799-5.76 2.208-5.76 6.954 0 .516-.08 1.326-.241 2.282m0 0c-.373 2.205-1.184 5.19-2.474 7.144-.445.673-.222 1.758.544 2.01l2.293.747c.592.192 1.211-.198 1.259-.818.206-2.687.082-6.968-1.622-9.083Z"/></g><defs><clipPath id="a"><path fill="#fff" d="M0 0h46v46H0z"/></clipPath></defs></svg>