<svg xmlns="http://www.w3.org/2000/svg" width="22" height="22" fill="none" viewBox="0 0 22 22"><g clip-path="url(#a)"><path fill="#0052B4" d="M22 11c0 6.075-4.925 11-11 11S0 17.075 0 11C0 11.003 11 .001 11 0c6.075 0 11 4.925 11 11"/><path fill="#F0F0F0" d="M10.97 11H11v-.03z"/><path fill="#F0F0F0" d="M11 5.74V0h-.002C4.924.001 0 4.925 0 11h5.74V7.768L8.97 11h2l.03-.03v-2L7.768 5.74z"/><path fill="#D80027" d="M5.565 1.435c-1.72.98-3.15 2.41-4.13 4.13V11h2.87V4.304H11v-2.87z"/><path fill="#D80027" d="M11 9.647 7.092 5.739H5.739L11 10.999z"/><path fill="#F0F0F0" d="m6.634 12.913.604 1.262 1.363-.315-.61 1.26 1.096.869-1.365.307.004 1.4-1.092-.876-1.091.876.004-1.4-1.365-.307 1.096-.87-.61-1.259 1.363.315zM16.47 15.305l.301.63.682-.157-.305.63.548.434-.683.154.002.7-.546-.438-.545.438.002-.7-.683-.153.548-.435-.305-.63.682.158zM13.661 8.609l.302.631.682-.158-.306.63.548.435-.682.154.002.7-.546-.438-.546.437.002-.7-.682-.153.548-.435-.306-.63.682.158zM16.47 4.783l.301.63.682-.157-.305.63.548.435-.683.153.002.7-.546-.438-.545.438.002-.7-.683-.153.548-.435-.305-.63.682.158zM18.923 7.652l.302.632.681-.158-.305.63.548.434-.682.154.001.7-.545-.438-.546.438.002-.7-.683-.154.548-.435-.305-.63.682.159zM17.169 11l.237.73h.769l-.622.452.238.731-.622-.452-.622.452.238-.73-.622-.452h.768z"/></g><defs><clipPath id="a"><path fill="#fff" d="M0 0h22v22H0z"/></clipPath></defs></svg>